<svg width="691" height="691" viewBox="0 0 691 691" fill="none" xmlns="http://www.w3.org/2000/svg">
<circle cx="345.5" cy="345.5" r="345.5" fill="url(#paint0_linear_1169_34423)"/>
<mask id="mask0_1169_34423" style="mask-type:alpha" maskUnits="userSpaceOnUse" x="0" y="0" width="691" height="691">
<circle cx="345.5" cy="345.5" r="345.5" fill="white"/>
</mask>
<g mask="url(#mask0_1169_34423)">
<g filter="url(#filter0_d_1169_34423)">
<path d="M174.307 121.573C173.895 121.573 173.483 121.61 173.071 121.61C173.071 121.498 173.071 121.347 173.071 121.235C173.071 108.957 163.97 98.7814 152.135 97.2044C152.135 97.1293 152.135 97.0542 152.135 96.9791C152.135 94.2006 149.888 91.9477 147.116 91.9477C146.442 91.9477 145.768 92.0979 145.169 92.3232C139.588 81.4344 128.277 74 115.243 74C99.8127 74 86.8165 84.4007 82.8464 98.5936C81.6105 98.2182 80.3371 97.9929 78.9888 97.9929C71.7603 97.9929 65.9176 103.85 65.9176 111.097C65.9176 113.312 66.4794 115.377 67.4157 117.217C57.7528 117.442 50 125.365 50 135.09C50 144.965 57.9775 153 67.8652 153C77.7528 153 167.64 153 174.307 153C182.959 153 190 145.979 190 137.268C190 128.557 182.959 121.573 174.307 121.573Z" fill="white"/>
</g>
<g filter="url(#filter1_d_1169_34423)">
<path d="M650.995 101.284C650.312 101.284 649.629 101.346 648.947 101.346C648.947 101.161 648.947 100.913 648.947 100.728C648.947 80.5238 633.865 63.7795 614.252 61.1844C614.252 61.0608 614.252 60.9373 614.252 60.8137C614.252 56.2415 610.528 52.5342 605.935 52.5342C604.818 52.5342 603.701 52.7814 602.708 53.1521C593.46 35.2338 574.716 23 553.118 23C527.547 23 506.01 40.115 499.431 63.4705C497.383 62.8527 495.273 62.4819 493.039 62.4819C481.06 62.4819 471.378 72.1207 471.378 84.0456C471.378 87.6911 472.309 91.0894 473.86 94.1169C457.848 94.4876 445 107.525 445 123.528C445 139.778 458.22 153 474.605 153C490.99 153 639.947 153 650.995 153C665.332 153 677 141.446 677 127.111C677 112.777 665.332 101.284 650.995 101.284Z" fill="white"/>
</g>
<path d="M119.547 551.566V524.926L186.344 419.691H209.313V456.566H195.719L153.609 523.207V524.457H248.531V551.566H119.547ZM196.344 579.691V543.441L196.969 531.645V419.691H228.688V579.691H196.344Z" fill="#1CCACD"/>
<path d="M441.547 551.566V524.926L508.344 419.691H531.313V456.566H517.719L475.609 523.207V524.457H570.531V551.566H441.547ZM518.344 579.691V543.441L518.969 531.645V419.691H550.688V579.691H518.344Z" fill="#1CCACD"/>
<path d="M330.205 581.886C316.981 579.501 306.169 574.236 297.768 566.091C289.418 557.955 283.76 547.306 280.792 534.142C277.876 520.988 277.963 505.799 281.053 488.574C284.083 471.391 289.204 457.195 296.416 445.985C303.68 434.784 312.612 426.866 323.214 422.231C333.875 417.553 345.797 416.376 358.979 418.7C372.161 421.024 382.936 426.203 391.304 434.237C399.723 442.279 405.43 452.805 408.424 465.814C411.428 478.772 411.389 493.838 408.308 511.012C405.261 528.298 400.091 542.617 392.8 553.972C385.561 565.335 376.627 573.412 365.998 578.201C355.37 582.991 343.439 584.219 330.205 581.886ZM335.076 554.265C344.103 555.857 352.11 552.588 359.097 544.459C366.083 536.33 371.151 523.182 374.302 505.016C376.409 493.065 376.933 482.897 375.872 474.513C374.864 466.137 372.481 459.556 368.724 454.768C365.018 449.99 360.165 447.071 354.163 446.013C345.187 444.43 337.215 447.652 330.247 455.679C323.278 463.705 318.19 476.664 314.982 494.556C312.848 506.661 312.272 516.978 313.253 525.508C314.296 533.994 316.691 540.657 320.438 545.496C324.195 550.284 329.074 553.207 335.076 554.265Z" fill="#1CCACD"/>
<path d="M236.77 200.285C237.269 199.481 237.578 198.522 237.578 197.495C237.578 194.585 235.203 192.24 232.295 192.24C230.918 192.24 229.678 192.753 228.732 193.609C227.424 191.486 225.049 190.066 222.364 190.066C220.866 190.066 219.472 190.511 218.302 191.264C217.613 184.93 212.209 180 205.652 180C201.091 180 197.08 182.397 194.826 185.991C193.827 185.495 192.691 185.221 191.487 185.221C187.356 185.221 184.017 188.559 184.017 192.65C184.017 193.9 184.327 195.081 184.878 196.108C184.602 196.091 184.31 196.074 184.017 196.074C178.492 196.074 174 200.542 174 206.037C174 211.532 178.492 216 184.017 216C189.542 216 230.591 216 234.997 216C239.403 216 243 212.439 243 208.04C243 204.257 240.332 201.09 236.77 200.285Z" fill="white"/>
<path d="M420.355 251.409C420.355 221.57 447.133 201 476.966 201C520.171 201 535.007 225.189 535.007 255.027C535.007 284.865 500.772 305.996 470.939 305.996C441.106 305.996 420.355 281.247 420.355 251.409Z" fill="#1CCACD"/>
<path d="M410.914 299.301C410.914 299.301 429.796 296.384 431.145 277.607L445.982 288.455C445.985 288.452 438.903 305.708 410.914 299.301Z" fill="#1CCACD"/>
<path d="M470.081 312.3C458.646 312.3 448.031 308.647 439.369 301.74C430.5 308.45 418.515 307.549 409.993 305.599L408.516 305.261L410.012 305.029C410.153 305.007 424.217 302.688 428.695 290.03C422.489 280.659 419.21 269.388 419.21 257.422C419.21 243.262 425.324 230.26 436.431 220.807C447.102 211.724 461.194 206.722 476.112 206.722C496.418 206.722 511.706 212.078 521.544 222.638C530.103 231.822 534.441 244.742 534.441 261.04C534.441 274.925 526.996 288.033 513.474 297.949C501.222 306.935 484.999 312.3 470.081 312.3ZM439.375 301.001L439.554 301.145C448.144 308.062 458.7 311.721 470.081 311.721C484.88 311.721 500.975 306.397 513.133 297.483C526.501 287.68 533.862 274.737 533.862 261.043C533.862 244.899 529.575 232.113 521.122 223.039C511.396 212.6 496.253 207.307 476.115 207.307C461.335 207.307 447.377 212.259 436.809 221.252C425.838 230.592 419.795 243.437 419.795 257.425C419.795 269.328 423.068 280.534 429.264 289.83L429.346 289.949L429.299 290.087C425.572 300.851 415.129 304.384 411.43 305.317C419.776 307.042 430.935 307.53 439.203 301.145L439.375 301.001Z" fill="#561C17"/>
<path d="M313.254 333.49C311.683 336.26 295.914 360.455 299.215 384.121L316.377 377.974L324.219 346.076L313.254 333.49Z" fill="#FFA076"/>
<path d="M381.785 323.574C381.785 323.574 371.239 304.841 345.571 310.018C319.904 315.198 305.897 351.587 312.857 423.668C312.857 423.668 353.633 407.608 406.658 420.554C406.658 420.557 397.933 350.752 381.785 323.574Z" fill="#1CCACD"/>
<path d="M401.363 316.005L383.318 333.846C383.318 333.846 337.063 346.225 324.216 346.075C311.37 345.928 306.313 336.626 306.313 336.626C306.313 336.626 317.156 319.617 339.097 311.924C341.159 311.197 343.315 310.559 345.571 310.02C349.358 309.119 353.21 308.603 357.031 308.374C379.745 307.038 401.363 316.005 401.363 316.005Z" fill="#1CCACD"/>
<path d="M401.363 316.006C404.245 319.111 399.798 322.504 394.816 327.431C389.834 332.357 384.686 335.231 383.322 333.847C381.954 332.464 384.886 327.349 389.868 322.423C394.85 317.496 400.039 314.582 401.363 316.006Z" fill="#373C44"/>
<path d="M385.722 333.918C385.722 333.918 385.453 330.356 389.975 325.805C392.697 323.063 396.146 321.273 398.455 320.284C399.829 319.695 401.419 320.356 401.963 321.748L403.409 325.442L396.675 329.736L385.722 333.918Z" fill="#FFA076"/>
<path d="M353.839 400.003C353.839 400.003 409.499 370.124 429.452 402.716C444.22 426.843 422.02 449.313 339.676 447.031C339.676 447.031 331.539 443.256 333.52 423.672C334.306 415.913 353.839 400.003 353.839 400.003Z" fill="#9B7EDE"/>
<path d="M353.839 400.002C353.839 400.002 279.707 369.922 265.039 388.727C248.181 410.337 264.348 447.033 342.489 433.915L352.012 423.671L353.839 400.002Z" fill="#9B7EDE"/>
<path d="M339.585 447.158C330.441 440.698 333.335 423.815 333.364 423.646L333.379 423.558L333.464 423.527L389.737 403.238L389.843 403.529L333.655 423.787C333.442 425.111 331.12 440.795 339.763 446.905L339.585 447.158Z" fill="#373C44"/>
<path d="M333.044 429.057C333.044 429.057 319.381 429.608 312.966 432.725C306.548 435.842 309.974 443.452 323.005 443.248C336.036 443.045 335.047 441.123 335.047 441.123C335.047 441.123 332.572 434.447 333.044 429.057Z" fill="#373C44"/>
<path d="M350.535 401.436C346.01 401.436 342.292 400.303 339.278 398.052C333.586 393.799 332.531 387.019 333.354 382.506L338.799 379.369C339.069 377.889 349.577 383.388 349.562 383.382C349.608 383.398 354.578 384.822 371.799 376.105C383.788 370.036 389.831 361.422 390.272 349.772C390.604 340.989 386.651 336.056 385.719 333.919C385.594 333.634 391.514 327.756 391.342 327.158L395.78 324.926C395.636 324.422 400.045 322.701 399.983 322.557L403.406 325.446C405.096 329.317 408.692 338.207 408.225 350.454C407.743 363.178 402.439 380.737 379.911 392.143C367.628 398.359 357.986 401.436 350.535 401.436Z" fill="#FFA076"/>
<path d="M346.88 402.151H298.843C297.839 402.151 296.944 401.518 296.627 400.579L286.645 371.051C286.141 369.564 287.267 368.027 288.86 368.027H335.057C337.163 368.027 339.031 369.354 339.694 371.317L349.095 399.127C349.599 400.617 348.472 402.151 346.88 402.151Z" fill="#373C44"/>
<path d="M343.863 402.151H295.826C294.819 402.151 293.927 401.519 293.611 400.58L283.628 371.051C283.124 369.564 284.251 368.028 285.844 368.028H332.04C334.146 368.028 336.014 369.355 336.678 371.317L346.078 399.127C346.582 400.617 345.459 402.151 343.863 402.151Z" fill="#373C44"/>
<path d="M310.206 384.123C310.206 383.002 311.511 382.545 312.653 382.545C313.792 382.545 315.654 383.775 315.642 385.347C315.629 387.043 314.293 387.262 313.151 387.262C312.012 387.262 310.206 385.55 310.206 384.123Z" fill="#DEEBE9"/>
<path d="M361.55 397.979H295.801V402.152H362.908C363.684 402.152 364.313 401.522 364.313 400.746C364.317 399.219 363.077 397.979 361.55 397.979Z" fill="#373C44"/>
<path d="M357.429 308.33C354.271 308.239 351.88 307.917 350.062 305.801L344.445 299.256L342.808 297.35L333.192 286.145L338.242 299.247L341.275 307.112L342.236 309.601C342.886 311.291 342.026 312.077 341.419 314.055C341.175 314.856 339.516 319.786 343.835 319.814C349.214 319.851 356.017 313.66 357.51 308.311C357.485 308.321 357.457 308.333 357.429 308.33Z" fill="#FFA076"/>
<path d="M346.01 295.049C346.01 295.049 356.599 284.971 350.491 276.46C344.382 267.953 342.855 290.116 342.855 290.116L344.564 295.24L346.01 295.049Z" fill="#373C44"/>
<path d="M344.392 299.031C344.411 299.106 344.429 299.182 344.445 299.257C345.428 303.676 341.312 307.129 341.312 307.129L341.275 307.113L338.242 299.247C339.532 298.293 341.428 297.135 342.808 297.351C343.531 297.463 344.113 297.948 344.392 299.031Z" fill="#373C44"/>
<path d="M321.979 293.554C319.591 285.676 322.949 277.685 329.483 275.703C336.014 273.722 343.246 278.505 345.634 286.38C348.022 294.258 344.664 302.249 338.13 304.23C331.595 306.211 324.363 301.432 321.979 293.554Z" fill="#FFA076"/>
<path d="M343.393 285.242C343.393 285.242 340.023 287.671 337.194 285.618C334.368 283.565 332.368 281.618 326.041 284.773C319.713 287.928 312.785 286.51 311.505 282.957C310.225 279.405 313.238 276.685 317.216 276.86C321.19 277.035 316.374 274.879 319.14 271.145C321.907 267.411 328.92 271.258 332.397 269.408C335.873 267.558 348.26 265.949 350.488 276.46L343.393 285.242Z" fill="#373C44"/>
<path d="M346.038 287.351C345.224 288.594 343.666 289.013 342.555 288.287C341.444 287.561 341.203 285.964 342.016 284.722C342.83 283.479 344.388 283.06 345.499 283.786C346.61 284.512 346.851 286.108 346.038 287.351Z" fill="#FFA076"/>
<path d="M331.433 290.358C331.358 290.349 331.289 290.302 331.248 290.233C331.179 290.111 331.223 289.961 331.345 289.892C331.417 289.851 332.979 288.777 334.653 290.198C334.759 290.289 334.775 290.443 334.691 290.552C334.603 290.659 334.462 290.649 334.337 290.59C333.098 289.967 331.649 290.299 331.589 290.333C331.539 290.355 331.483 290.364 331.433 290.358Z" fill="#060633"/>
<path d="M333.745 292.837C333.839 293.429 333.57 293.961 333.141 294.03C332.713 294.099 332.29 293.676 332.196 293.085C332.103 292.493 332.372 291.961 332.8 291.892C333.226 291.823 333.652 292.249 333.745 292.837Z" fill="#060633"/>
<path d="M322.68 293.502C322.623 293.517 322.558 293.498 322.504 293.445C322.414 293.354 322.392 293.198 322.454 293.098C322.492 293.038 323.221 291.53 324.902 292.309C325.008 292.359 325.074 292.497 325.052 292.625C325.027 292.753 324.924 292.791 324.814 292.772C323.722 292.594 322.811 293.376 322.78 293.426C322.755 293.464 322.72 293.492 322.68 293.502Z" fill="#060633"/>
<path d="M325.822 294.898C326.135 295.409 326.088 296.006 325.718 296.232C325.349 296.457 324.795 296.229 324.482 295.718C324.169 295.208 324.216 294.61 324.586 294.385C324.955 294.156 325.509 294.388 325.822 294.898Z" fill="#060633"/>
<path d="M332.988 301.176C332.106 301.176 331.489 301.026 331.473 301.02C331.38 300.994 331.323 300.901 331.348 300.807C331.373 300.713 331.467 300.656 331.561 300.681C331.733 300.725 335.811 301.711 337.817 298.199C337.864 298.115 337.973 298.087 338.055 298.134C338.139 298.181 338.167 298.287 338.12 298.372C336.768 300.738 334.493 301.176 332.988 301.176Z" fill="#020202"/>
<path d="M338.474 298.987C338.402 298.987 338.333 298.94 338.308 298.868C338.227 298.627 337.989 298.258 337.313 297.873C337.288 297.857 337.269 297.848 337.263 297.842C337.181 297.788 337.16 297.679 337.213 297.601C337.266 297.519 337.372 297.497 337.454 297.55L337.485 297.569C338.105 297.923 338.493 298.324 338.64 298.759C338.671 298.849 338.621 298.95 338.53 298.981C338.511 298.984 338.493 298.987 338.474 298.987Z" fill="#020202"/>
<path d="M342.818 327.198L342.796 326.424C356.59 326.033 361.563 314.205 361.613 314.086L362.329 314.377C362.276 314.505 361.028 317.526 357.992 320.64C355.191 323.513 350.284 326.985 342.818 327.198Z" fill="#373C44"/>
<path d="M349.386 333.817L348.976 333.16C349.048 333.116 356.086 328.646 356.994 320.652L357.764 320.74C356.812 329.116 349.461 333.773 349.386 333.817Z" fill="#373C44"/>
<path d="M318.611 335.916L315.778 344.454L316.511 344.697L319.345 336.16L318.611 335.916Z" fill="#373C44"/>
<path d="M324.414 303.34C324.245 303.34 324.072 303.328 323.9 303.306C322.045 303.055 320.117 301.503 318.743 299.146C316.506 295.312 316.408 290.504 318.521 288.432C319.303 287.662 320.305 287.337 321.412 287.484C323.268 287.734 325.196 289.287 326.57 291.643C328.807 295.478 328.904 300.285 326.792 302.357C326.132 303.005 325.315 303.34 324.414 303.34ZM320.902 287.969C320.132 287.969 319.441 288.254 318.881 288.801C316.925 290.72 317.066 295.243 319.187 298.883C320.48 301.102 322.267 302.561 323.963 302.789C324.908 302.918 325.756 302.639 326.423 301.988C328.378 300.069 328.238 295.547 326.116 291.906C324.823 289.687 323.037 288.229 321.34 288C321.193 287.978 321.046 287.969 320.902 287.969Z" fill="white"/>
<g opacity="0.3">
<path opacity="0.3" d="M339.156 286.013C340.965 289.825 340.467 294.464 338.039 296.373C335.611 298.283 332.178 296.74 330.366 292.927C328.554 289.115 329.054 284.476 331.483 282.567C333.911 280.658 337.344 282.201 339.156 286.013Z" fill="white"/>
</g>
<g opacity="0.3">
<path opacity="0.3" d="M326.751 291.95C328.566 295.782 328.322 300.43 326.204 302.333C324.085 304.236 320.893 302.674 319.075 298.843C317.26 295.012 317.504 290.363 319.622 288.46C321.741 286.557 324.933 288.122 326.751 291.95Z" fill="white"/>
</g>
<path d="M335.319 297.401C334.969 297.401 334.612 297.358 334.252 297.273C332.312 296.813 330.547 295.192 329.411 292.825C327.455 288.756 328.047 283.758 330.729 281.683C331.811 280.844 333.091 280.571 334.431 280.888C336.371 281.348 338.136 282.969 339.272 285.335C341.228 289.404 340.636 294.403 337.954 296.478C337.166 297.088 336.268 297.401 335.319 297.401ZM333.37 281.279C332.534 281.279 331.746 281.554 331.048 282.093C328.551 284.024 328.025 288.738 329.881 292.6C330.932 294.794 332.613 296.35 334.374 296.766C335.554 297.045 336.684 296.804 337.638 296.065C340.136 294.134 340.661 289.42 338.806 285.558C337.754 283.367 336.074 281.808 334.312 281.392C333.993 281.316 333.677 281.279 333.37 281.279Z" fill="white"/>
<path d="M326.441 293.584C326.338 293.584 326.232 293.55 326.144 293.481C325.934 293.315 325.894 293.015 326.057 292.802C326.11 292.733 327.371 291.137 330.062 291.071C330.331 291.058 330.554 291.277 330.56 291.543C330.566 291.813 330.353 292.035 330.087 292.041C327.878 292.094 326.864 293.343 326.823 293.396C326.726 293.522 326.582 293.584 326.441 293.584Z" fill="white"/>
<path d="M468.08 251.891L467.336 259.468C467.185 261.061 465.985 262.28 464.216 262.397C462.447 262.515 461.471 261.441 461.621 259.847L462.365 252.27L460.614 252.386L459.856 260.107C459.615 262.572 461.261 264.199 464.05 264.014C466.834 263.829 468.839 261.959 469.08 259.495L469.838 251.774L468.08 251.891Z" fill="black"/>
<path d="M471.403 266.612L473.098 266.5L473.562 261.828L473.664 261.821C473.928 262.362 474.446 263.301 476.033 263.196C478.142 263.056 479.844 261.246 480.122 258.398C480.4 255.543 479.019 253.967 476.916 254.106C475.3 254.213 474.612 255.25 474.262 255.814L474.12 255.823L474.259 254.396L472.603 254.506L471.403 266.612ZM473.828 258.798C474.002 256.959 474.925 255.685 476.405 255.586C477.936 255.485 478.566 256.747 478.409 258.494C478.224 260.26 477.32 261.658 475.801 261.759C474.344 261.856 473.655 260.649 473.828 258.798Z" fill="black"/>
<path d="M489.41 255.526C489.184 254.169 488.207 253.357 486.308 253.483C484.358 253.612 482.872 254.736 482.718 256.278C482.586 257.545 483.276 258.331 484.876 258.595L486.304 258.824C487.139 258.963 487.473 259.288 487.418 259.832C487.356 260.525 486.554 261.137 485.426 261.206C484.433 261.272 483.837 260.873 483.718 260.021L482.057 260.382C482.193 261.916 483.396 262.713 485.38 262.581C487.461 262.443 489.015 261.235 489.172 259.659C489.293 258.393 488.573 257.672 487.007 257.405L485.648 257.177C484.72 257.01 484.359 256.716 484.418 256.148C484.48 255.449 485.269 254.901 486.244 254.837C487.299 254.767 487.705 255.315 487.847 255.903L489.41 255.526Z" fill="black"/>
<path d="M494.714 250.123L492.849 250.247L492.179 258.6L493.744 258.496L494.714 250.123ZM492.776 262.022C493.383 261.982 493.882 261.442 493.869 260.811C493.857 260.202 493.308 259.732 492.695 259.773C492.077 259.814 491.565 260.337 491.601 260.961C491.632 261.591 492.136 262.065 492.776 262.022Z" fill="black"/>
</g>
<defs>
<filter id="filter0_d_1169_34423" x="42" y="66" width="156" height="95" filterUnits="userSpaceOnUse" color-interpolation-filters="sRGB">
<feFlood flood-opacity="0" result="BackgroundImageFix"/>
<feColorMatrix in="SourceAlpha" type="matrix" values="0 0 0 0 0 0 0 0 0 0 0 0 0 0 0 0 0 0 127 0" result="hardAlpha"/>
<feOffset/>
<feGaussianBlur stdDeviation="4"/>
<feComposite in2="hardAlpha" operator="out"/>
<feColorMatrix type="matrix" values="0 0 0 0 0 0 0 0 0 0.250667 0 0 0 0 0.266667 0 0 0 0.05 0"/>
<feBlend mode="normal" in2="BackgroundImageFix" result="effect1_dropShadow_1169_34423"/>
<feBlend mode="normal" in="SourceGraphic" in2="effect1_dropShadow_1169_34423" result="shape"/>
</filter>
<filter id="filter1_d_1169_34423" x="437" y="15" width="248" height="146" filterUnits="userSpaceOnUse" color-interpolation-filters="sRGB">
<feFlood flood-opacity="0" result="BackgroundImageFix"/>
<feColorMatrix in="SourceAlpha" type="matrix" values="0 0 0 0 0 0 0 0 0 0 0 0 0 0 0 0 0 0 127 0" result="hardAlpha"/>
<feOffset/>
<feGaussianBlur stdDeviation="4"/>
<feComposite in2="hardAlpha" operator="out"/>
<feColorMatrix type="matrix" values="0 0 0 0 0 0 0 0 0 0.250667 0 0 0 0 0.266667 0 0 0 0.05 0"/>
<feBlend mode="normal" in2="BackgroundImageFix" result="effect1_dropShadow_1169_34423"/>
<feBlend mode="normal" in="SourceGraphic" in2="effect1_dropShadow_1169_34423" result="shape"/>
</filter>
<linearGradient id="paint0_linear_1169_34423" x1="344.936" y1="-431.17" x2="227.137" y2="703.57" gradientUnits="userSpaceOnUse">
<stop stop-color="#9BE6EB"/>
<stop offset="1" stop-color="white"/>
</linearGradient>
</defs>
</svg>
